<?xml version="1.0" encoding="UTF-8"?>
<svg width="900" height="580" xmlns="http://www.w3.org/2000/svg">
    <defs>
        <linearGradient id="docGrad" x1="0%" y1="0%" x2="0%" y2="100%">
            <stop offset="0%" style="stop-color:#6441A5;stop-opacity:0.8" />
            <stop offset="100%" style="stop-color:#2a0845;stop-opacity:0.8" />
        </linearGradient>
        <linearGradient id="embedGrad" x1="0%" y1="0%" x2="0%" y2="100%">
            <stop offset="0%" style="stop-color:#00b09b;stop-opacity:0.8" />
            <stop offset="100%" style="stop-color:#96c93d;stop-opacity:0.8" />
        </linearGradient>
        <linearGradient id="vectorGrad" x1="0%" y1="0%" x2="0%" y2="100%">
            <stop offset="0%" style="stop-color:#ff9966;stop-opacity:0.8" />
            <stop offset="100%" style="stop-color:#ff5e62;stop-opacity:0.8" />
        </linearGradient>
        <linearGradient id="llmGrad" x1="0%" y1="0%" x2="0%" y2="100%">
            <stop offset="0%" style="stop-color:#4776E6;stop-opacity:0.8" />
            <stop offset="100%" style="stop-color:#8E54E9;stop-opacity:0.8" />
        </linearGradient>
        <linearGradient id="otherGrad" x1="0%" y1="0%" x2="0%" y2="100%">
            <stop offset="0%" style="stop-color:#56ab2f;stop-opacity:0.8" />
            <stop offset="100%" style="stop-color:#a8e063;stop-opacity:0.8" />
        </linearGradient>
        <filter id="shadow" x="-20%" y="-20%" width="140%" height="140%">
            <feDropShadow dx="2" dy="2" stdDeviation="3" flood-opacity="0.3"/>
        </filter>
    </defs>

    <!-- Title -->
    <text x="450" y="40" font-family="Arial" font-size="24" font-weight="bold" text-anchor="middle" filter="url(#shadow)">Detailed Cost Breakdown by RAG Architecture</text>
    <text x="450" y="70" font-family="Arial" font-size="16" text-anchor="middle">Monthly Costs for 100K Pages Processing</text>

    <!-- Stacked Bar Chart -->
    <rect x="100" y="100" width="700" height="400" fill="#f8f9fa" stroke="#ddd" stroke-width="2" rx="10" ry="10"/>

    <!-- Chart Labels -->
    <text x="160" y="120" font-family="Arial" font-size="16" font-weight="bold" text-anchor="middle" fill="#333">Naive RAG</text>
    <text x="260" y="120" font-family="Arial" font-size="16" font-weight="bold" text-anchor="middle" fill="#333">Retrieve-Rerank</text>
    <text x="360" y="120" font-family="Arial" font-size="16" font-weight="bold" text-anchor="middle" fill="#333">Multimodal</text>
    <text x="460" y="120" font-family="Arial" font-size="16" font-weight="bold" text-anchor="middle" fill="#333">Graph RAG</text>
    <text x="560" y="120" font-family="Arial" font-size="16" font-weight="bold" text-anchor="middle" fill="#333">Hybrid RAG</text>
    <text x="660" y="120" font-family="Arial" font-size="16" font-weight="bold" text-anchor="middle" fill="#333">Agentic RAG</text>

    <!-- Y-Axis -->
    <line x1="100" y1="150" x2="100" y2="450" stroke="#333" stroke-width="2"/>
    <line x1="95" y1="450" x2="100" y2="450" stroke="#333" stroke-width="2"/>
    <text x="80" y="455" font-family="Arial" font-size="12" text-anchor="end" fill="#333">$0</text>
    
    <line x1="95" y1="390" x2="100" y2="390" stroke="#333" stroke-width="2"/>
    <text x="80" y="395" font-family="Arial" font-size="12" text-anchor="end" fill="#333">$1,000</text>
    
    <line x1="95" y1="330" x2="100" y2="330" stroke="#333" stroke-width="2"/>
    <text x="80" y="335" font-family="Arial" font-size="12" text-anchor="end" fill="#333">$2,000</text>
    
    <line x1="95" y1="270" x2="100" y2="270" stroke="#333" stroke-width="2"/>
    <text x="80" y="275" font-family="Arial" font-size="12" text-anchor="end" fill="#333">$3,000</text>
    
    <line x1="95" y1="210" x2="100" y2="210" stroke="#333" stroke-width="2"/>
    <text x="80" y="215" font-family="Arial" font-size="12" text-anchor="end" fill="#333">$4,000</text>
    
    <line x1="95" y1="150" x2="100" y2="150" stroke="#333" stroke-width="2"/>
    <text x="80" y="155" font-family="Arial" font-size="12" text-anchor="end" fill="#333">$5,000</text>

    <!-- X-Axis -->
    <line x1="100" y1="450" x2="800" y2="450" stroke="#333" stroke-width="2"/>

    <!-- Stacked Bars - Naive RAG -->
    <rect x="130" y="330" width="60" height="120" fill="url(#docGrad)" stroke="#fff" stroke-width="1"/>
    <rect x="130" y="420" width="60" height="30" fill="url(#embedGrad)" stroke="#fff" stroke-width="1"/>
    <rect x="130" y="390" width="60" height="30" fill="url(#vectorGrad)" stroke="#fff" stroke-width="1"/>
    <rect x="130" y="330" width="60" height="60" fill="url(#llmGrad)" stroke="#fff" stroke-width="1"/>

    <!-- Stacked Bars - Retrieve-Rerank -->
    <rect x="230" y="330" width="60" height="120" fill="url(#docGrad)" stroke="#fff" stroke-width="1"/>
    <rect x="230" y="420" width="60" height="30" fill="url(#embedGrad)" stroke="#fff" stroke-width="1"/>
    <rect x="230" y="390" width="60" height="30" fill="url(#vectorGrad)" stroke="#fff" stroke-width="1"/>
    <rect x="230" y="290" width="60" height="40" fill="url(#otherGrad)" stroke="#fff" stroke-width="1"/>
    <rect x="230" y="330" width="60" height="60" fill="url(#llmGrad)" stroke="#fff" stroke-width="1"/>

    <!-- Stacked Bars - Multimodal RAG -->
    <rect x="330" y="270" width="60" height="180" fill="url(#docGrad)" stroke="#fff" stroke-width="1"/>
    <rect x="330" y="420" width="60" height="30" fill="url(#embedGrad)" stroke="#fff" stroke-width="1"/>
    <rect x="330" y="370" width="60" height="50" fill="url(#vectorGrad)" stroke="#fff" stroke-width="1"/>
    <rect x="330" y="270" width="60" height="100" fill="url(#llmGrad)" stroke="#fff" stroke-width="1"/>

    <!-- Stacked Bars - Graph RAG -->
    <rect x="430" y="330" width="60" height="120" fill="url(#docGrad)" stroke="#fff" stroke-width="1"/>
    <rect x="430" y="420" width="60" height="30" fill="url(#embedGrad)" stroke="#fff" stroke-width="1"/>
    <rect x="430" y="370" width="60" height="50" fill="url(#vectorGrad)" stroke="#fff" stroke-width="1"/>
    <rect x="430" y="290" width="60" height="80" fill="url(#otherGrad)" stroke="#fff" stroke-width="1"/>
    <rect x="430" y="330" width="60" height="60" fill="url(#llmGrad)" stroke="#fff" stroke-width="1"/>

    <!-- Stacked Bars - Hybrid RAG -->
    <rect x="530" y="330" width="60" height="120" fill="url(#docGrad)" stroke="#fff" stroke-width="1"/>
    <rect x="530" y="420" width="60" height="30" fill="url(#embedGrad)" stroke="#fff" stroke-width="1"/>
    <rect x="530" y="370" width="60" height="50" fill="url(#vectorGrad)" stroke="#fff" stroke-width="1"/>
    <rect x="530" y="270" width="60" height="60" fill="url(#otherGrad)" stroke="#fff" stroke-width="1"/>
    <rect x="530" y="330" width="60" height="60" fill="url(#llmGrad)" stroke="#fff" stroke-width="1"/>

    <!-- Stacked Bars - Agentic RAG -->
    <rect x="630" y="330" width="60" height="120" fill="url(#docGrad)" stroke="#fff" stroke-width="1"/>
    <rect x="630" y="420" width="60" height="30" fill="url(#embedGrad)" stroke="#fff" stroke-width="1"/>
    <rect x="630" y="390" width="60" height="30" fill="url(#vectorGrad)" stroke="#fff" stroke-width="1"/>
    <rect x="630" y="230" width="60" height="100" fill="url(#otherGrad)" stroke="#fff" stroke-width="1"/>
    <rect x="630" y="230" width="60" height="160" fill="url(#llmGrad)" stroke="#fff" stroke-width="1"/>

    <!-- Legend -->
    <rect x="150" y="480" width="20" height="20" fill="url(#docGrad)" stroke="#fff" stroke-width="1"/>
    <text x="180" y="495" font-family="Arial" font-size="14" fill="#333">Document Processing ($1,000-$1,500)</text>
    
    <rect x="150" y="510" width="20" height="20" fill="url(#embedGrad)" stroke="#fff" stroke-width="1"/>
    <text x="180" y="525" font-family="Arial" font-size="14" fill="#333">Vector Embeddings ($7.50-$150)</text>
    
    <rect x="450" y="480" width="20" height="20" fill="url(#vectorGrad)" stroke="#fff" stroke-width="1"/>
    <text x="480" y="495" font-family="Arial" font-size="14" fill="#333">Vector Database ($50-$200)</text>
    
    <rect x="450" y="510" width="20" height="20" fill="url(#llmGrad)" stroke="#fff" stroke-width="1"/>
    <text x="480" y="525" font-family="Arial" font-size="14" fill="#333">LLM Generation ($200-$1,500)</text>
    
    <rect x="700" y="480" width="20" height="20" fill="url(#otherGrad)" stroke="#fff" stroke-width="1"/>
    <text x="730" y="495" font-family="Arial" font-size="14" fill="#333">Specialized Components</text>
    <text x="730" y="515" font-family="Arial" font-size="12" fill="#666">(Rerankers, Knowledge Graphs, Agent Frameworks)</text>
    
    <!-- Total Cost Ranges -->
    <text x="160" y="160" font-family="Arial" font-size="12" font-weight="bold" text-anchor="middle" fill="#333">$1,250-$2,250</text>
    <text x="260" y="160" font-family="Arial" font-size="12" font-weight="bold" text-anchor="middle" fill="#333">$1,450-$2,750</text>
    <text x="360" y="160" font-family="Arial" font-size="12" font-weight="bold" text-anchor="middle" fill="#333">$2,200-$4,000</text>
    <text x="460" y="160" font-family="Arial" font-size="12" font-weight="bold" text-anchor="middle" fill="#333">$2,000-$3,800</text>
    <text x="560" y="160" font-family="Arial" font-size="12" font-weight="bold" text-anchor="middle" fill="#333">$2,000-$4,300</text>
    <text x="660" y="160" font-family="Arial" font-size="12" font-weight="bold" text-anchor="middle" fill="#333">$2,550-$4,600</text>
</svg>