<svg viewBox="0 0 900 600" xmlns="http://www.w3.org/2000/svg">
    <!-- Background -->
    <rect x="0" y="0" width="900" height="600" fill="#f8f8f8" />
    
    <!-- Title -->
    <text x="450" y="40" font-family="Arial" font-size="24" font-weight="bold" text-anchor="middle">Document Processing + Vector DB Combinations</text>
    
    <!-- Section title -->
    <rect x="50" y="70" width="800" height="40" rx="5" fill="#eaeaea" stroke="#333" stroke-width="1" />
    <text x="450" y="95" font-family="Arial" font-size="16" font-weight="bold" text-anchor="middle">Strategic Permutation Analysis: Building Block Approach</text>
    
    <!-- Combination diagram -->
    <!-- Column headers -->
    <rect x="50" y="130" width="150" height="60" rx="5" fill="#4472c4" stroke="#333" stroke-width="1" />
    <rect x="200" y="130" width="150" height="60" rx="5" fill="#4472c4" stroke="#333" stroke-width="1" />
    <rect x="350" y="130" width="120" height="60" rx="5" fill="#4472c4" stroke="#333" stroke-width="1" />
    <rect x="470" y="130" width="120" height="60" rx="5" fill="#4472c4" stroke="#333" stroke-width="1" />
    <rect x="590" y="130" width="120" height="60" rx="5" fill="#4472c4" stroke="#333" stroke-width="1" />
    <rect x="710" y="130" width="140" height="60" rx="5" fill="#4472c4" stroke="#333" stroke-width="1" />
    
    <text x="125" y="165" font-family="Arial" font-size="14" font-weight="bold" fill="white" text-anchor="middle">Document Processor</text>
    <text x="275" y="165" font-family="Arial" font-size="14" font-weight="bold" fill="white" text-anchor="middle">Vector Database</text>
    <text x="410" y="165" font-family="Arial" font-size="14" font-weight="bold" fill="white" text-anchor="middle">Use Case Fit</text>
    <text x="530" y="165" font-family="Arial" font-size="14" font-weight="bold" fill="white" text-anchor="middle">Performance</text>
    <text x="650" y="165" font-family="Arial" font-size="14" font-weight="bold" fill="white" text-anchor="middle">Cost Profile</text>
    <text x="780" y="165" font-family="Arial" font-size="14" font-weight="bold" fill="white" text-anchor="middle">Implementation Complexity</text>
    
    <!-- Unstructured.io + Pinecone -->
    <rect x="50" y="190" width="150" height="70" fill="#f5f5f5" stroke="#333" stroke-width="1" />
    <rect x="200" y="190" width="150" height="70" fill="#f5f5f5" stroke="#333" stroke-width="1" />
    <rect x="350" y="190" width="120" height="70" fill="#f5f5f5" stroke="#333" stroke-width="1" />
    <rect x="470" y="190" width="120" height="70" fill="#f5f5f5" stroke="#333" stroke-width="1" />
    <rect x="590" y="190" width="120" height="70" fill="#f5f5f5" stroke="#333" stroke-width="1" />
    <rect x="710" y="190" width="140" height="70" fill="#f5f5f5" stroke="#333" stroke-width="1" />
    
    <text x="125" y="225" font-family="Arial" font-size="14" font-weight="bold" text-anchor="middle">Unstructured.io</text>
    <text x="275" y="225" font-family="Arial" font-size="14" font-weight="bold" text-anchor="middle">Pinecone</text>
    <text x="410" y="225" font-family="Arial" font-size="12" text-anchor="middle">General purpose, variety of documents</text>
    <text x="530" y="225" font-family="Arial" font-size="14" text-anchor="middle">High</text>
    <text x="650" y="225" font-family="Arial" font-size="14" text-anchor="middle">Moderate-High</text>
    <text x="780" y="225" font-family="Arial" font-size="14" text-anchor="middle">Medium</text>
    
    <!-- Google Document AI + Weaviate -->
    <rect x="50" y="260" width="150" height="70" fill="#f5f5f5" stroke="#333" stroke-width="1" />
    <rect x="200" y="260" width="150" height="70" fill="#f5f5f5" stroke="#333" stroke-width="1" />
    <rect x="350" y="260" width="120" height="70" fill="#f5f5f5" stroke="#333" stroke-width="1" />
    <rect x="470" y="260" width="120" height="70" fill="#f5f5f5" stroke="#333" stroke-width="1" />
    <rect x="590" y="260" width="120" height="70" fill="#f5f5f5" stroke="#333" stroke-width="1" />
    <rect x="710" y="260" width="140" height="70" fill="#f5f5f5" stroke="#333" stroke-width="1" />
    
    <text x="125" y="288" font-family="Arial" font-size="14" font-weight="bold" text-anchor="middle">Google</text>
    <text x="125" y="308" font-family="Arial" font-size="14" font-weight="bold" text-anchor="middle">Document AI</text>
    <text x="275" y="295" font-family="Arial" font-size="14" font-weight="bold" text-anchor="middle">Weaviate</text>
    <text x="410" y="288" font-family="Arial" font-size="12" text-anchor="middle">Complex documents,</text>
    <text x="410" y="308" font-family="Arial" font-size="12" text-anchor="middle">multimodal</text>
    <text x="530" y="295" font-family="Arial" font-size="14" text-anchor="middle">Very High</text>
    <text x="650" y="295" font-family="Arial" font-size="14" text-anchor="middle">High</text>
    <text x="780" y="295" font-family="Arial" font-size="14" text-anchor="middle">High</text>
    
    <!-- AWS Textract + Qdrant -->
    <rect x="50" y="330" width="150" height="70" fill="#f5f5f5" stroke="#333" stroke-width="1" />
    <rect x="200" y="330" width="150" height="70" fill="#f5f5f5" stroke="#333" stroke-width="1" />
    <rect x="350" y="330" width="120" height="70" fill="#f5f5f5" stroke="#333" stroke-width="1" />
    <rect x="470" y="330" width="120" height="70" fill="#f5f5f5" stroke="#333" stroke-width="1" />
    <rect x="590" y="330" width="120" height="70" fill="#f5f5f5" stroke="#333" stroke-width="1" />
    <rect x="710" y="330" width="140" height="70" fill="#f5f5f5" stroke="#333" stroke-width="1" />
    
    <text x="125" y="365" font-family="Arial" font-size="14" font-weight="bold" text-anchor="middle">AWS Textract</text>
    <text x="275" y="365" font-family="Arial" font-size="14" font-weight="bold" text-anchor="middle">Qdrant</text>
    <text x="410" y="358" font-family="Arial" font-size="12" text-anchor="middle">Form extraction,</text>
    <text x="410" y="378" font-family="Arial" font-size="12" text-anchor="middle">table-heavy docs</text>
    <text x="530" y="365" font-family="Arial" font-size="14" text-anchor="middle">High</text>
    <text x="650" y="365" font-family="Arial" font-size="14" text-anchor="middle">Moderate</text>
    <text x="780" y="365" font-family="Arial" font-size="14" text-anchor="middle">Medium</text>
    
    <!-- Azure Form Recognizer + Azure AI Search -->
    <rect x="50" y="400" width="150" height="80" fill="#f5f5f5" stroke="#333" stroke-width="1" />
    <rect x="200" y="400" width="150" height="80" fill="#f5f5f5" stroke="#333" stroke-width="1" />
    <rect x="350" y="400" width="120" height="80" fill="#f5f5f5" stroke="#333" stroke-width="1" />
    <rect x="470" y="400" width="120" height="80" fill="#f5f5f5" stroke="#333" stroke-width="1" />
    <rect x="590" y="400" width="120" height="80" fill="#f5f5f5" stroke="#333" stroke-width="1" />
    <rect x="710" y="400" width="140" height="80" fill="#f5f5f5" stroke="#333" stroke-width="1" />
    
    <text x="125" y="428" font-family="Arial" font-size="14" font-weight="bold" text-anchor="middle">Azure Form</text>
    <text x="125" y="448" font-family="Arial" font-size="14" font-weight="bold" text-anchor="middle">Recognizer</text>
    <text x="275" y="428" font-family="Arial" font-size="14" font-weight="bold" text-anchor="middle">Azure AI</text>
    <text x="275" y="448" font-family="Arial" font-size="14" font-weight="bold" text-anchor="middle">Search</text>
    <text x="410" y="428" font-family="Arial" font-size="12" text-anchor="middle">Microsoft ecosystem,</text>
    <text x="410" y="448" font-family="Arial" font-size="12" text-anchor="middle">regulated industries</text>
    <text x="530" y="440" font-family="Arial" font-size="14" text-anchor="middle">Good</text>
    <text x="650" y="440" font-family="Arial" font-size="14" text-anchor="middle">Moderate</text>
    <text x="780" y="440" font-family="Arial" font-size="14" text-anchor="middle">Low</text>
    
    <!-- Docugami + Neo4j -->
    <rect x="50" y="480" width="150" height="70" fill="#f5f5f5" stroke="#333" stroke-width="1" />
    <rect x="200" y="480" width="150" height="70" fill="#f5f5f5" stroke="#333" stroke-width="1" />
    <rect x="350" y="480" width="120" height="70" fill="#f5f5f5" stroke="#333" stroke-width="1" />
    <rect x="470" y="480" width="120" height="70" fill="#f5f5f5" stroke="#333" stroke-width="1" />
    <rect x="590" y="480" width="120" height="70" fill="#f5f5f5" stroke="#333" stroke-width="1" />
    <rect x="710" y="480" width="140" height="70" fill="#f5f5f5" stroke="#333" stroke-width="1" />
    
    <text x="125" y="515" font-family="Arial" font-size="14" font-weight="bold" text-anchor="middle">Docugami</text>
    <text x="275" y="515" font-family="Arial" font-size="14" font-weight="bold" text-anchor="middle">Neo4j</text>
    <text x="410" y="508" font-family="Arial" font-size="12" text-anchor="middle">Contract analysis,</text>
    <text x="410" y="528" font-family="Arial" font-size="12" text-anchor="middle">relationship-heavy</text>
    <text x="530" y="515" font-family="Arial" font-size="14" text-anchor="middle">Specialized</text>
    <text x="650" y="515" font-family="Arial" font-size="14" text-anchor="middle">High</text>
    <text x="780" y="515" font-family="Arial" font-size="14" text-anchor="middle">High</text>
    
    <!-- Legend for color coding -->
    <rect x="300" y="560" width="300" height="30" rx="5" fill="#e6f2ff" stroke="#333" stroke-width="1" />
    <text x="450" y="580" font-family="Arial" font-size="14" font-weight="bold" text-anchor="middle">Recommended Combinations by Use Case</text>
  </svg>