<svg viewBox="0 0 900 600" xmlns="http://www.w3.org/2000/svg">
    <!-- Background -->
    <rect x="0" y="0" width="900" height="600" fill="#f8f8f8" />
    
    <!-- Title -->
    <text x="450" y="40" font-family="Arial" font-size="24" font-weight="bold" text-anchor="middle">Organizational Readiness Assessment Matrix</text>
    
    <!-- Table header -->
    <rect x="50" y="70" width="200" height="50" fill="#4472c4" stroke="#333" stroke-width="1" />
    <rect x="250" y="70" width="150" height="50" fill="#4472c4" stroke="#333" stroke-width="1" />
    <rect x="400" y="70" width="150" height="50" fill="#4472c4" stroke="#333" stroke-width="1" />
    <rect x="550" y="70" width="150" height="50" fill="#4472c4" stroke="#333" stroke-width="1" />
    <rect x="700" y="70" width="150" height="50" fill="#4472c4" stroke="#333" stroke-width="1" />
    
    <text x="150" y="100" font-family="Arial" font-size="16" font-weight="bold" fill="white" text-anchor="middle">Dimension</text>
    <text x="325" y="100" font-family="Arial" font-size="16" font-weight="bold" fill="white" text-anchor="middle">Level 1 (Beginning)</text>
    <text x="475" y="100" font-family="Arial" font-size="16" font-weight="bold" fill="white" text-anchor="middle">Level 3 (Intermediate)</text>
    <text x="625" y="100" font-family="Arial" font-size="16" font-weight="bold" fill="white" text-anchor="middle">Level 5 (Advanced)</text>
    <text x="775" y="100" font-family="Arial" font-size="16" font-weight="bold" fill="white" text-anchor="middle">Solution Recommendation</text>
    
    <!-- Data Readiness Row -->
    <rect x="50" y="120" width="200" height="75" fill="#e6f2ff" stroke="#333" stroke-width="1" />
    <rect x="250" y="120" width="150" height="75" fill="#f5f5f5" stroke="#333" stroke-width="1" />
    <rect x="400" y="120" width="150" height="75" fill="#f5f5f5" stroke="#333" stroke-width="1" />
    <rect x="550" y="120" width="150" height="75" fill="#f5f5f5" stroke="#333" stroke-width="1" />
    <rect x="700" y="120" width="150" height="75" fill="#e6f2ff" stroke="#333" stroke-width="1" />
    
    <text x="150" y="145" font-family="Arial" font-size="16" font-weight="bold" text-anchor="middle">Data Readiness</text>
    <text x="150" y="170" font-family="Arial" font-size="14" text-anchor="middle"></text>
    
    <text x="325" y="145" font-family="Arial" font-size="14" text-anchor="middle">Unstructured,</text>
    <text x="325" y="165" font-family="Arial" font-size="14" text-anchor="middle">dispersed</text>
    
    <text x="475" y="145" font-family="Arial" font-size="14" text-anchor="middle">Partially</text>
    <text x="475" y="165" font-family="Arial" font-size="14" text-anchor="middle">organized</text>
    
    <text x="625" y="145" font-family="Arial" font-size="14" text-anchor="middle">Well-structured,</text>
    <text x="625" y="165" font-family="Arial" font-size="14" text-anchor="middle">governed</text>
    
    <text x="775" y="145" font-family="Arial" font-size="14" text-anchor="middle">L1-2: SaaS</text>
    <text x="775" y="165" font-family="Arial" font-size="14" text-anchor="middle">L3-5: Component</text>
    
    <!-- Technical Capability Row -->
    <rect x="50" y="195" width="200" height="75" fill="#e6f2ff" stroke="#333" stroke-width="1" />
    <rect x="250" y="195" width="150" height="75" fill="#f5f5f5" stroke="#333" stroke-width="1" />
    <rect x="400" y="195" width="150" height="75" fill="#f5f5f5" stroke="#333" stroke-width="1" />
    <rect x="550" y="195" width="150" height="75" fill="#f5f5f5" stroke="#333" stroke-width="1" />
    <rect x="700" y="195" width="150" height="75" fill="#e6f2ff" stroke="#333" stroke-width="1" />
    
    <text x="150" y="220" font-family="Arial" font-size="16" font-weight="bold" text-anchor="middle">Technical</text>
    <text x="150" y="245" font-family="Arial" font-size="16" font-weight="bold" text-anchor="middle">Capability</text>
    
    <text x="325" y="220" font-family="Arial" font-size="14" text-anchor="middle">Minimal technical</text>
    <text x="325" y="240" font-family="Arial" font-size="14" text-anchor="middle">resources</text>
    
    <text x="475" y="220" font-family="Arial" font-size="14" text-anchor="middle">Dedicated IT</text>
    <text x="475" y="240" font-family="Arial" font-size="14" text-anchor="middle">team</text>
    
    <text x="625" y="220" font-family="Arial" font-size="14" text-anchor="middle">ML/AI</text>
    <text x="625" y="240" font-family="Arial" font-size="14" text-anchor="middle">expertise</text>
    
    <text x="775" y="210" font-family="Arial" font-size="14" text-anchor="middle">L1-2: SaaS</text>
    <text x="775" y="230" font-family="Arial" font-size="14" text-anchor="middle">L3-4: Hybrid</text>
    <text x="775" y="250" font-family="Arial" font-size="14" text-anchor="middle">L5: Custom</text>
    
    <!-- Use Case Clarity Row -->
    <rect x="50" y="270" width="200" height="75" fill="#e6f2ff" stroke="#333" stroke-width="1" />
    <rect x="250" y="270" width="150" height="75" fill="#f5f5f5" stroke="#333" stroke-width="1" />
    <rect x="400" y="270" width="150" height="75" fill="#f5f5f5" stroke="#333" stroke-width="1" />
    <rect x="550" y="270" width="150" height="75" fill="#f5f5f5" stroke="#333" stroke-width="1" />
    <rect x="700" y="270" width="150" height="75" fill="#e6f2ff" stroke="#333" stroke-width="1" />
    
    <text x="150" y="295" font-family="Arial" font-size="16" font-weight="bold" text-anchor="middle">Use Case</text>
    <text x="150" y="320" font-family="Arial" font-size="16" font-weight="bold" text-anchor="middle">Clarity</text>
    
    <text x="325" y="295" font-family="Arial" font-size="14" text-anchor="middle">General</text>
    <text x="325" y="315" font-family="Arial" font-size="14" text-anchor="middle">exploration</text>
    
    <text x="475" y="295" font-family="Arial" font-size="14" text-anchor="middle">Defined</text>
    <text x="475" y="315" font-family="Arial" font-size="14" text-anchor="middle">problem areas</text>
    
    <text x="625" y="295" font-family="Arial" font-size="14" text-anchor="middle">Specific metrics</text>
    <text x="625" y="315" font-family="Arial" font-size="14" text-anchor="middle">and goals</text>
    
    <text x="775" y="295" font-family="Arial" font-size="14" text-anchor="middle">L1-2: General platform</text>
    <text x="775" y="315" font-family="Arial" font-size="14" text-anchor="middle">L3-5: Specialized</text>
    
    <!-- Integration Requirements Row -->
    <rect x="50" y="345" width="200" height="75" fill="#e6f2ff" stroke="#333" stroke-width="1" />
    <rect x="250" y="345" width="150" height="75" fill="#f5f5f5" stroke="#333" stroke-width="1" />
    <rect x="400" y="345" width="150" height="75" fill="#f5f5f5" stroke="#333" stroke-width="1" />
    <rect x="550" y="345" width="150" height="75" fill="#f5f5f5" stroke="#333" stroke-width="1" />
    <rect x="700" y="345" width="150" height="75" fill="#e6f2ff" stroke="#333" stroke-width="1" />
    
    <text x="150" y="370" font-family="Arial" font-size="16" font-weight="bold" text-anchor="middle">Integration</text>
    <text x="150" y="395" font-family="Arial" font-size="16" font-weight="bold" text-anchor="middle">Requirements</text>
    
    <text x="325" y="370" font-family="Arial" font-size="14" text-anchor="middle">Standalone</text>
    <text x="325" y="390" font-family="Arial" font-size="14" text-anchor="middle">acceptable</text>
    
    <text x="475" y="370" font-family="Arial" font-size="14" text-anchor="middle">Some system</text>
    <text x="475" y="390" font-family="Arial" font-size="14" text-anchor="middle">connections</text>
    
    <text x="625" y="370" font-family="Arial" font-size="14" text-anchor="middle">Complex workflow</text>
    <text x="625" y="390" font-family="Arial" font-size="14" text-anchor="middle">integration</text>
    
    <text x="775" y="360" font-family="Arial" font-size="14" text-anchor="middle">L1-2: SaaS</text>
    <text x="775" y="380" font-family="Arial" font-size="14" text-anchor="middle">L3-4: Hybrid</text>
    <text x="775" y="400" font-family="Arial" font-size="14" text-anchor="middle">L5: Custom</text>
    
    <!-- Budget Availability Row -->
    <rect x="50" y="420" width="200" height="75" fill="#e6f2ff" stroke="#333" stroke-width="1" />
    <rect x="250" y="420" width="150" height="75" fill="#f5f5f5" stroke="#333" stroke-width="1" />
    <rect x="400" y="420" width="150" height="75" fill="#f5f5f5" stroke="#333" stroke-width="1" />
    <rect x="550" y="420" width="150" height="75" fill="#f5f5f5" stroke="#333" stroke-width="1" />
    <rect x="700" y="420" width="150" height="75" fill="#e6f2ff" stroke="#333" stroke-width="1" />
    
    <text x="150" y="445" font-family="Arial" font-size="16" font-weight="bold" text-anchor="middle">Budget</text>
    <text x="150" y="470" font-family="Arial" font-size="16" font-weight="bold" text-anchor="middle">Availability</text>
    
    <text x="325" y="460" font-family="Arial" font-size="14" text-anchor="middle">~$100K annually</text>
    
    <text x="475" y="460" font-family="Arial" font-size="14" text-anchor="middle">Budget-appropriate tier</text>
    
    <text x="625" y="460" font-family="Arial" font-size="14" text-anchor="middle">Budget-appropriate tier</text>
    
    <text x="775" y="460" font-family="Arial" font-size="14" text-anchor="middle">Solution matches budget</text>
    
    <!-- Level indicators with arrows -->
    <rect x="250" y="510" width="450" height="50" fill="#f0f0f0" stroke="#ccc" stroke-width="1" rx="5" />
    
    <!-- Level indicators -->
    <circle cx="270" cy="535" r="15" fill="#ff9999" stroke="#333" stroke-width="1" />
    <text x="270" y="540" font-family="Arial" font-size="14" font-weight="bold" text-anchor="middle">1</text>
    
    <circle cx="320" cy="535" r="15" fill="#ffcc99" stroke="#333" stroke-width="1" />
    <text x="320" y="540" font-family="Arial" font-size="14" font-weight="bold" text-anchor="middle">2</text>
    
    <circle cx="370" cy="535" r="15" fill="#ffff99" stroke="#333" stroke-width="1" />
    <text x="370" y="540" font-family="Arial" font-size="14" font-weight="bold" text-anchor="middle">3</text>
    
    <circle cx="420" cy="535" r="15" fill="#ccff99" stroke="#333" stroke-width="1" />
    <text x="420" y="540" font-family="Arial" font-size="14" font-weight="bold" text-anchor="middle">4</text>
    
    <circle cx="470" cy="535" r="15" fill="#99ff99" stroke="#333" stroke-width="1" />
    <text x="470" y="540" font-family="Arial" font-size="14" font-weight="bold" text-anchor="middle">5</text>
    
    <!-- Arrow -->
    <line x1="500" y1="535" x2="680" y2="535" stroke="#333" stroke-width="2" />
    <polygon points="680,535 670,530 670,540" fill="#333" />
    
    <text x="590" y="520" font-family="Arial" font-size="14" font-weight="bold" text-anchor="middle">Increasing Organizational Readiness</text>
  </svg>