<?xml version="1.0" encoding="UTF-8"?>
<svg width="900" height="600" xmlns="http://www.w3.org/2000/svg">
    <defs>
        <linearGradient id="headerGrad" x1="0%" y1="0%" x2="0%" y2="100%">
            <stop offset="0%" style="stop-color:#0072ff;stop-opacity:1" />
            <stop offset="100%" style="stop-color:#00c6ff;stop-opacity:1" />
        </linearGradient>
        <filter id="shadow" x="-20%" y="-20%" width="140%" height="140%">
            <feDropShadow dx="2" dy="2" stdDeviation="3" flood-opacity="0.3"/>
        </filter>
    </defs>

    <!-- Title -->
    <rect x="50" y="20" width="800" height="60" rx="10" ry="10" fill="url(#headerGrad)" filter="url(#shadow)"/>
    <text x="450" y="55" font-family="Arial" font-size="24" font-weight="bold" text-anchor="middle" fill="white">Organizational Capability Assessment</text>
    <text x="450" y="75" font-family="Arial" font-size="16" text-anchor="middle" fill="white">For 100K Pages Monthly RAG Implementation</text>

    <!-- Capability Matrix -->
    <rect x="50" y="100" width="800" height="480" rx="10" ry="10" fill="#f8f9fa" stroke="#ddd" stroke-width="2"/>
    
    <!-- Capability Domains -->
    <rect x="70" y="120" width="350" height="50" rx="10" ry="10" fill="#3f51b5" opacity="0.8"/>
    <text x="245" y="150" font-family="Arial" font-size="18" font-weight="bold" text-anchor="middle" fill="white">Technical Capabilities</text>
    
    <rect x="480" y="120" width="350" height="50" rx="10" ry="10" fill="#009688" opacity="0.8"/>
    <text x="655" y="150" font-family="Arial" font-size="18" font-weight="bold" text-anchor="middle" fill="white">Organizational Capabilities</text>
    
    <!-- Capability Assessment Table - Technical -->
    <rect x="70" y="180" width="350" height="380" fill="white" stroke="#ddd" stroke-width="1"/>
    
    <!-- Headers -->
    <rect x="70" y="180" width="200" height="40" fill="#e0e0e0" stroke="#ddd" stroke-width="1"/>
    <rect x="270" y="180" width="150" height="40" fill="#e0e0e0" stroke="#ddd" stroke-width="1"/>
    
    <text x="170" y="205" font-family="Arial" font-size="14" font-weight="bold" text-anchor="middle" fill="#333">Capability Area</text>
    <text x="345" y="205" font-family="Arial" font-size="14" font-weight="bold" text-anchor="middle" fill="#333">Required Level</text>
    
    <!-- Row 1 -->
    <rect x="70" y="220" width="200" height="60" fill="#f8f9fa" stroke="#ddd" stroke-width="1"/>
    <rect x="270" y="220" width="150" height="60" fill="#f8f9fa" stroke="#ddd" stroke-width="1"/>
    
    <text x="170" y="245" font-family="Arial" font-size="14" font-weight="bold" text-anchor="middle" fill="#333">Data Engineering</text>
    <text x="170" y="265" font-family="Arial" font-size="12" text-anchor="middle" fill="#666">(Document Processing)</text>
    
    <rect x="290" y="235" width="110" height="30" rx="15" ry="15" fill="#4CAF50" opacity="0.7"/>
    <text x="345" y="255" font-family="Arial" font-size="14" font-weight="bold" text-anchor="middle" fill="white">High</text>
    
    <!-- Row 2 -->
    <rect x="70" y="280" width="200" height="60" fill="white" stroke="#ddd" stroke-width="1"/>
    <rect x="270" y="280" width="150" height="60" fill="white" stroke="#ddd" stroke-width="1"/>
    
    <text x="170" y="305" font-family="Arial" font-size="14" font-weight="bold" text-anchor="middle" fill="#333">ML/AI Engineering</text>
    <text x="170" y="325" font-family="Arial" font-size="12" text-anchor="middle" fill="#666">(Embeddings, LLMs)</text>
    
    <rect x="290" y="295" width="110" height="30" rx="15" ry="15" fill="#4CAF50" opacity="0.7"/>
    <text x="345" y="315" font-family="Arial" font-size="14" font-weight="bold" text-anchor="middle" fill="white">High</text>
    
    <!-- Row 3 -->
    <rect x="70" y="340" width="200" height="60" fill="#f8f9fa" stroke="#ddd" stroke-width="1"/>
    <rect x="270" y="340" width="150" height="60" fill="#f8f9fa" stroke="#ddd" stroke-width="1"/>
    
    <text x="170" y="365" font-family="Arial" font-size="14" font-weight="bold" text-anchor="middle" fill="#333">Vector Database</text>
    <text x="170" y="385" font-family="Arial" font-size="12" text-anchor="middle" fill="#666">(Indexing, Retrieval)</text>
    
    <rect x="290" y="355" width="110" height="30" rx="15" ry="15" fill="#FFC107" opacity="0.7"/>
    <text x="345" y="375" font-family="Arial" font-size="14" font-weight="bold" text-anchor="middle" fill="white">Medium</text>
    
    <!-- Row 4 -->
    <rect x="70" y="400" width="200" height="60" fill="white" stroke="#ddd" stroke-width="1"/>
    <rect x="270" y="400" width="150" height="60" fill="white" stroke="#ddd" stroke-width="1"/>
    
    <text x="170" y="425" font-family="Arial" font-size="14" font-weight="bold" text-anchor="middle" fill="#333">Prompt Engineering</text>
    <text x="170" y="445" font-family="Arial" font-size="12" text-anchor="middle" fill="#666">(Response Generation)</text>
    
    <rect x="290" y="415" width="110" height="30" rx="15" ry="15" fill="#FFC107" opacity="0.7"/>
    <text x="345" y="435" font-family="Arial" font-size="14" font-weight="bold" text-anchor="middle" fill="white">Medium</text>
    
    <!-- Row 5 -->
    <rect x="70" y="460" width="200" height="60" fill="#f8f9fa" stroke="#ddd" stroke-width="1"/>
    <rect x="270" y="460" width="150" height="60" fill="#f8f9fa" stroke="#ddd" stroke-width="1"/>
    
    <text x="170" y="485" font-family="Arial" font-size="14" font-weight="bold" text-anchor="middle" fill="#333">DevOps</text>
    <text x="170" y="505" font-family="Arial" font-size="12" text-anchor="middle" fill="#666">(Deployment, Scaling)</text>
    
    <rect x="290" y="475" width="110" height="30" rx="15" ry="15" fill="#FFC107" opacity="0.7"/>
    <text x="345" y="495" font-family="Arial" font-size="14" font-weight="bold" text-anchor="middle" fill="white">Medium</text>
    
    <!-- Capability Assessment Table - Organizational -->
    <rect x="480" y="180" width="350" height="380" fill="white" stroke="#ddd" stroke-width="1"/>
    
    <!-- Headers -->
    <rect x="480" y="180" width="200" height="40" fill="#e0e0e0" stroke="#ddd" stroke-width="1"/>
    <rect x="680" y="180" width="150" height="40" fill="#e0e0e0" stroke="#ddd" stroke-width="1"/>
    
    <text x="580" y="205" font-family="Arial" font-size="14" font-weight="bold" text-anchor="middle" fill="#333">Capability Area</text>
    <text x="755" y="205" font-family="Arial" font-size="14" font-weight="bold" text-anchor="middle" fill="#333">Required Level</text>
    
    <!-- Row 1 -->
    <rect x="480" y="220" width="200" height="60" fill="#f8f9fa" stroke="#ddd" stroke-width="1"/>
    <rect x="680" y="220" width="150" height="60" fill="#f8f9fa" stroke="#ddd" stroke-width="1"/>
    
    <text x="580" y="245" font-family="Arial" font-size="14" font-weight="bold" text-anchor="middle" fill="#333">Domain Expertise</text>
    <text x="580" y="265" font-family="Arial" font-size="12" text-anchor="middle" fill="#666">(Content Understanding)</text>
    
    <rect x="700" y="235" width="110" height="30" rx="15" ry="15" fill="#4CAF50" opacity="0.7"/>
    <text x="755" y="255" font-family="Arial" font-size="14" font-weight="bold" text-anchor="middle" fill="white">High</text>
    
    <!-- Row 2 -->
    <rect x="480" y="280" width="200" height="60" fill="white" stroke="#ddd" stroke-width="1"/>
    <rect x="680" y="280" width="150" height="60" fill="white" stroke="#ddd" stroke-width="1"/>
    
    <text x="580" y="305" font-family="Arial" font-size="14" font-weight="bold" text-anchor="middle" fill="#333">Change Management</text>
    <text x="580" y="325" font-family="Arial" font-size="12" text-anchor="middle" fill="#666">(User Adoption)</text>
    
    <rect x="700" y="295" width="110" height="30" rx="15" ry="15" fill="#FFC107" opacity="0.7"/>
    <text x="755" y="315" font-family="Arial" font-size="14" font-weight="bold" text-anchor="middle" fill="white">Medium</text>
    
    <!-- Row 3 -->
    <rect x="480" y="340" width="200" height="60" fill="#f8f9fa" stroke="#ddd" stroke-width="1"/>
    <rect x="680" y="340" width="150" height="60" fill="#f8f9fa" stroke="#ddd" stroke-width="1"/>
    
    <text x="580" y="365" font-family="Arial" font-size="14" font-weight="bold" text-anchor="middle" fill="#333">Data Governance</text>
    <text x="580" y="385" font-family="Arial" font-size="12" text-anchor="middle" fill="#666">(Privacy, Security)</text>
    
    <rect x="700" y="355" width="110" height="30" rx="15" ry="15" fill="#4CAF50" opacity="0.7"/>
    <text x="755" y="375" font-family="Arial" font-size="14" font-weight="bold" text-anchor="middle" fill="white">High</text>
    
    <!-- Row 4 -->
    <rect x="480" y="400" width="200" height="60" fill="white" stroke="#ddd" stroke-width="1"/>
    <rect x="680" y="400" width="150" height="60" fill="white" stroke="#ddd" stroke-width="1"/>
    
    <text x="580" y="425" font-family="Arial" font-size="14" font-weight="bold" text-anchor="middle" fill="#333">Project Management</text>
    <text x="580" y="445" font-family="Arial" font-size="12" text-anchor="middle" fill="#666">(Implementation, Coordination)</text>
    
    <rect x="700" y="415" width="110" height="30" rx="15" ry="15" fill="#FFC107" opacity="0.7"/>
    <text x="755" y="435" font-family="Arial" font-size="14" font-weight="bold" text-anchor="middle" fill="white">Medium</text>
    
    <!-- Row 5 -->
    <rect x="480" y="460" width="200" height="60" fill="#f8f9fa" stroke="#ddd" stroke-width="1"/>
    <rect x="680" y="460" width="150" height="60" fill="#f8f9fa" stroke="#ddd" stroke-width="1"/>
    
    <text x="580" y="485" font-family="Arial" font-size="14" font-weight="bold" text-anchor="middle" fill="#333">Executive Sponsorship</text>
    <text x="580" y="505" font-family="Arial" font-size="12" text-anchor="middle" fill="#666">(Resource Allocation)</text>
    
    <rect x="700" y="475" width="110" height="30" rx="15" ry="15" fill="#4CAF50" opacity="0.7"/>
    <text x="755" y="495" font-family="Arial" font-size="14" font-weight="bold" text-anchor="middle" fill="white">High</text>
</svg>