<?xml version="1.0" encoding="UTF-8"?>
<svg width="900" height="650" xmlns="http://www.w3.org/2000/svg">
    <defs>
        <linearGradient id="headerGrad" x1="0%" y1="0%" x2="0%" y2="100%">
            <stop offset="0%" style="stop-color:#6A11CB;stop-opacity:1" />
            <stop offset="100%" style="stop-color:#2575FC;stop-opacity:1" />
        </linearGradient>
        <filter id="shadow" x="-20%" y="-20%" width="140%" height="140%">
            <feDropShadow dx="2" dy="2" stdDeviation="3" flood-opacity="0.3"/>
        </filter>
    </defs>

    <!-- Title -->
    <rect x="50" y="20" width="800" height="60" rx="10" ry="10" fill="url(#headerGrad)" filter="url(#shadow)"/>
    <text x="450" y="55" font-family="Arial" font-size="24" font-weight="bold" text-anchor="middle" fill="white">Provider Selection Framework</text>
    <text x="450" y="75" font-family="Arial" font-size="16" text-anchor="middle" fill="white">For 100K Pages Monthly RAG Processing</text>

    <!-- Framework Overview -->
    <rect x="50" y="100" width="800" height="120" rx="10" ry="10" fill="#f8f9fa" stroke="#ddd" stroke-width="2"/>
    <text x="450" y="125" font-family="Arial" font-size="18" font-weight="bold" text-anchor="middle" fill="#333">7-Layer Evaluation Matrix</text>
    
    <!-- Evaluation criteria circles -->
    <circle cx="170" cy="170" r="25" fill="#4CAF50" opacity="0.8"/>
    <text x="170" y="175" font-family="Arial" font-size="14" font-weight="bold" text-anchor="middle" fill="white">40%</text>
    <text x="170" y="200" font-family="Arial" font-size="14" font-weight="bold" text-anchor="middle" fill="#333">Technical</text>
    <text x="170" y="215" font-family="Arial" font-size="12" text-anchor="middle" fill="#666">Capability</text>
    
    <circle cx="280" cy="170" r="25" fill="#2196F3" opacity="0.8"/>
    <text x="280" y="175" font-family="Arial" font-size="14" font-weight="bold" text-anchor="middle" fill="white">25%</text>
    <text x="280" y="200" font-family="Arial" font-size="14" font-weight="bold" text-anchor="middle" fill="#333">Economic</text>
    <text x="280" y="215" font-family="Arial" font-size="12" text-anchor="middle" fill="#666">Viability</text>
    
    <circle cx="390" cy="170" r="25" fill="#9C27B0" opacity="0.8"/>
    <text x="390" y="175" font-family="Arial" font-size="14" font-weight="bold" text-anchor="middle" fill="white">15%</text>
    <text x="390" y="200" font-family="Arial" font-size="14" font-weight="bold" text-anchor="middle" fill="#333">Strategic</text>
    <text x="390" y="215" font-family="Arial" font-size="12" text-anchor="middle" fill="#666">Fit</text>
    
    <circle cx="500" cy="170" r="25" fill="#FF9800" opacity="0.8"/>
    <text x="500" y="175" font-family="Arial" font-size="14" font-weight="bold" text-anchor="middle" fill="white">10%</text>
    <text x="500" y="200" font-family="Arial" font-size="14" font-weight="bold" text-anchor="middle" fill="#333">Ethical</text>
    <text x="500" y="215" font-family="Arial" font-size="12" text-anchor="middle" fill="#666">Compliance</text>
    
    <circle cx="610" cy="170" r="25" fill="#F44336" opacity="0.8"/>
    <text x="610" y="175" font-family="Arial" font-size="14" font-weight="bold" text-anchor="middle" fill="white">5%</text>
    <text x="610" y="200" font-family="Arial" font-size="14" font-weight="bold" text-anchor="middle" fill="#333">Implementation</text>
    <text x="610" y="215" font-family="Arial" font-size="12" text-anchor="middle" fill="#666">Risk</text>
    
    <circle cx="720" cy="170" r="25" fill="#607D8B" opacity="0.8"/>
    <text x="720" y="175" font-family="Arial" font-size="14" font-weight="bold" text-anchor="middle" fill="white">5%</text>
    <text x="720" y="200" font-family="Arial" font-size="14" font-weight="bold" text-anchor="middle" fill="#333">Ecosystem n</text>
    <text x="720" y="215" font-family="Arial" font-size="12" text-anchor="middle" fill="#666">Sustainability</text>

    <!-- Document Processing Providers -->
    <rect x="50" y="240" width="800" height="120" rx="10" ry="10" fill="#f8f9fa" stroke="#ddd" stroke-width="2"/>
    <text x="450" y="265" font-family="Arial" font-size="18" font-weight="bold" text-anchor="middle" fill="#333">Document Processing Providers for 100K Pages Monthly</text>
    
    <!-- Provider evaluation table -->
    <rect x="70" y="285" width="150" height="35" rx="5" ry="5" fill="#4CAF50" opacity="0.2" stroke="#ddd" stroke-width="1"/>
    <text x="145" y="308" font-family="Arial" font-size="14" font-weight="bold" text-anchor="middle" fill="#333">AWS Textract</text>
    <rect x="220" y="285" width="150" height="35" rx="5" ry="5" fill="#4CAF50" opacity="0.6" stroke="#ddd" stroke-width="1"/>
    <text x="295" y="308" font-family="Arial" font-size="14" font-weight="bold" text-anchor="middle" fill="white">Technical: 5/5</text>
    <rect x="370" y="285" width="150" height="35" rx="5" ry="5" fill="#F44336" opacity="0.6" stroke="#ddd" stroke-width="1"/>
    <text x="445" y="308" font-family="Arial" font-size="14" font-weight="bold" text-anchor="middle" fill="white">Cost: 2/5</text>
    <rect x="520" y="285" width="300" height="35" rx="5" ry="5" fill="#FFC107" opacity="0.3" stroke="#ddd" stroke-width="1"/>
    <text x="670" y="308" font-family="Arial" font-size="14" font-weight="bold" text-anchor="middle" fill="#333">$1,500-$2,000 for 100K pages</text>
    
    <rect x="70" y="320" width="150" height="35" rx="5" ry="5" fill="#4CAF50" opacity="0.2" stroke="#ddd" stroke-width="1"/>
    <text x="145" y="343" font-family="Arial" font-size="14" font-weight="bold" text-anchor="middle" fill="#333">Azure Form Recognizer</text>
    <rect x="220" y="320" width="150" height="35" rx="5" ry="5" fill="#4CAF50" opacity="0.5" stroke="#ddd" stroke-width="1"/>
    <text x="295" y="343" font-family="Arial" font-size="14" font-weight="bold" text-anchor="middle" fill="white">Technical: 4/5</text>
    <rect x="370" y="320" width="150" height="35" rx="5" ry="5" fill="#FFC107" opacity="0.6" stroke="#ddd" stroke-width="1"/>
    <text x="445" y="343" font-family="Arial" font-size="14" font-weight="bold" text-anchor="middle" fill="white">Cost: 3/5</text>
    <rect x="520" y="320" width="300" height="35" rx="5" ry="5" fill="#FFC107" opacity="0.3" stroke="#ddd" stroke-width="1"/>
    <text x="670" y="343" font-family="Arial" font-size="14" font-weight="bold" text-anchor="middle" fill="#333">$1,000-$1,500 for 100K pages</text>
    
    <rect x="70" y="355" width="150" height="35" rx="5" ry="5" fill="#4CAF50" opacity="0.2" stroke="#ddd" stroke-width="1"/>
    <text x="145" y="378" font-family="Arial" font-size="14" font-weight="bold" text-anchor="middle" fill="#333">Unstructured.io</text>
    <rect x="220" y="355" width="150" height="35" rx="5" ry="5" fill="#FFC107" opacity="0.6" stroke="#ddd" stroke-width="1"/>
    <text x="295" y="378" font-family="Arial" font-size="14" font-weight="bold" text-anchor="middle" fill="white">Technical: 3/5</text>
    <rect x="370" y="355" width="150" height="35" rx="5" ry="5" fill="#4CAF50" opacity="0.6" stroke="#ddd" stroke-width="1"/>
    <text x="445" y="378" font-family="Arial" font-size="14" font-weight="bold" text-anchor="middle" fill="white">Cost: 5/5</text>
    <rect x="520" y="355" width="300" height="35" rx="5" ry="5" fill="#FFC107" opacity="0.3" stroke="#ddd" stroke-width="1"/>
    <text x="670" y="378" font-family="Arial" font-size="14" font-weight="bold" text-anchor="middle" fill="#333">$0 (self-hosted) + infrastructure</text>

    <!-- Vector Database Providers -->
    <rect x="50" y="380" width="800" height="120" rx="10" ry="10" fill="#f8f9fa" stroke="#ddd" stroke-width="2"/>
    <text x="450" y="405" font-family="Arial" font-size="18" font-weight="bold" text-anchor="middle" fill="#333">Vector Database Providers for 100K Pages Monthly</text>
    
    <rect x="70" y="425" width="150" height="35" rx="5" ry="5" fill="#4CAF50" opacity="0.2" stroke="#ddd" stroke-width="1"/>
    <text x="145" y="448" font-family="Arial" font-size="14" font-weight="bold" text-anchor="middle" fill="#333">Pinecone</text>
    <rect x="220" y="425" width="150" height="35" rx="5" ry="5" fill="#4CAF50" opacity="0.6" stroke="#ddd" stroke-width="1"/>
    <text x="295" y="448" font-family="Arial" font-size="14" font-weight="bold" text-anchor="middle" fill="white">Technical: 5/5</text>
    <rect x="370" y="425" width="150" height="35" rx="5" ry="5" fill="#FFC107" opacity="0.6" stroke="#ddd" stroke-width="1"/>
    <text x="445" y="448" font-family="Arial" font-size="14" font-weight="bold" text-anchor="middle" fill="white">Cost: 3/5</text>
    <rect x="520" y="425" width="300" height="35" rx="5" ry="5" fill="#FFC107" opacity="0.3" stroke="#ddd" stroke-width="1"/>
    <text x="670" y="448" font-family="Arial" font-size="14" font-weight="bold" text-anchor="middle" fill="#333">$70-$500+ monthly</text>
    
    <rect x="70" y="460" width="150" height="35" rx="5" ry="5" fill="#4CAF50" opacity="0.2" stroke="#ddd" stroke-width="1"/>
    <text x="145" y="483" font-family="Arial" font-size="14" font-weight="bold" text-anchor="middle" fill="#333">Weaviate</text>
    <rect x="220" y="460" width="150" height="35" rx="5" ry="5" fill="#4CAF50" opacity="0.6" stroke="#ddd" stroke-width="1"/>
    <text x="295" y="483" font-family="Arial" font-size="14" font-weight="bold" text-anchor="middle" fill="white">Technical: 5/5</text>
    <rect x="370" y="460" width="150" height="35" rx="5" ry="5" fill="#FFC107" opacity="0.6" stroke="#ddd" stroke-width="1"/>
    <text x="445" y="483" font-family="Arial" font-size="14" font-weight="bold" text-anchor="middle" fill="white">Cost: 3/5</text>
    <rect x="520" y="460" width="300" height="35" rx="5" ry="5" fill="#FFC107" opacity="0.3" stroke="#ddd" stroke-width="1"/>
    <text x="670" y="483" font-family="Arial" font-size="14" font-weight="bold" text-anchor="middle" fill="#333">$75-$600+ monthly</text>
    
    <rect x="70" y="495" width="150" height="35" rx="5" ry="5" fill="#4CAF50" opacity="0.2" stroke="#ddd" stroke-width="1"/>
    <text x="145" y="518" font-family="Arial" font-size="14" font-weight="bold" text-anchor="middle" fill="#333">Qdrant</text>
    <rect x="220" y="495" width="150" height="35" rx="5" ry="5" fill="#4CAF50" opacity="0.5" stroke="#ddd" stroke-width="1"/>
    <text x="295" y="518" font-family="Arial" font-size="14" font-weight="bold" text-anchor="middle" fill="white">Technical: 4/5</text>
    <rect x="370" y="495" width="150" height="35" rx="5" ry="5" fill="#4CAF50" opacity="0.6" stroke="#ddd" stroke-width="1"/>
    <text x="445" y="518" font-family="Arial" font-size="14" font-weight="bold" text-anchor="middle" fill="white">Cost: 4/5</text>
    <rect x="520" y="495" width="300" height="35" rx="5" ry="5" fill="#FFC107" opacity="0.3" stroke="#ddd" stroke-width="1"/>
    <text x="670" y="518" font-family="Arial" font-size="14" font-weight="bold" text-anchor="middle" fill="#333">$50-$400+ monthly</text>

    <!-- Embedding and LLM Providers -->
    <rect x="50" y="520" width="800" height="120" rx="10" ry="10" fill="#f8f9fa" stroke="#ddd" stroke-width="2"/>
    <text x="450" y="545" font-family="Arial" font-size="18" font-weight="bold" text-anchor="middle" fill="#333">Embedding/LLM Providers for 100K Pages Monthly</text>
    
    <rect x="70" y="565" width="150" height="35" rx="5" ry="5" fill="#4CAF50" opacity="0.2" stroke="#ddd" stroke-width="1"/>
    <text x="145" y="588" font-family="Arial" font-size="14" font-weight="bold" text-anchor="middle" fill="#333">OpenAI</text>
    <rect x="220" y="565" width="150" height="35" rx="5" ry="5" fill="#4CAF50" opacity="0.6" stroke="#ddd" stroke-width="1"/>
    <text x="295" y="588" font-family="Arial" font-size="14" font-weight="bold" text-anchor="middle" fill="white">Technical: 5/5</text>
    <rect x="370" y="565" width="150" height="35" rx="5" ry="5" fill="#4CAF50" opacity="0.6" stroke="#ddd" stroke-width="1"/>
    <text x="445" y="588" font-family="Arial" font-size="14" font-weight="bold" text-anchor="middle" fill="white">Cost: 4/5</text>
    <rect x="520" y="565" width="300" height="35" rx="5" ry="5" fill="#FFC107" opacity="0.3" stroke="#ddd" stroke-width="1"/>
    <text x="670" y="588" font-family="Arial" font-size="14" font-weight="bold" text-anchor="middle" fill="#333">$7.50-$40 per 75M tokens</text>
    
    <rect x="70" y="600" width="150" height="35" rx="5" ry="5" fill="#4CAF50" opacity="0.2" stroke="#ddd" stroke-width="1"/>
    <text x="145" y="623" font-family="Arial" font-size="14" font-weight="bold" text-anchor="middle" fill="#333">Cohere</text>
    <rect x="220" y="600" width="150" height="35" rx="5" ry="5" fill="#4CAF50" opacity="0.6" stroke="#ddd" stroke-width="1"/>
    <text x="295" y="623" font-family="Arial" font-size="14" font-weight="bold" text-anchor="middle" fill="white">Technical: 5/5</text>
    <rect x="370" y="600" width="150" height="35" rx="5" ry="5" fill="#FFC107" opacity="0.6" stroke="#ddd" stroke-width="1"/>
    <text x="445" y="623" font-family="Arial" font-size="14" font-weight="bold" text-anchor="middle" fill="white">Cost: 3/5</text>
    <rect x="520" y="600" width="300" height="35" rx="5" ry="5" fill="#FFC107" opacity="0.3" stroke="#ddd" stroke-width="1"/>
    <text x="670" y="623" font-family="Arial" font-size="14" font-weight="bold" text-anchor="middle" fill="#333">$75-$150 per 75M tokens</text>
</svg>