<svg viewBox="0 0 900 600" xmlns="http://www.w3.org/2000/svg">
    <!-- Background -->
    <rect x="0" y="0" width="900" height="600" fill="#f8f8f8" />
    
    <!-- Title -->
    <text x="450" y="40" font-family="Arial" font-size="24" font-weight="bold" text-anchor="middle">RAG Solutions Feature Comparison</text>
    <text x="450" y="70" font-family="Arial" font-size="16" font-style="italic" text-anchor="middle">For Enterprise Implementation of 100,000 Documents Monthly</text>
    
    <!-- Feature Categories -->
    <rect x="50" y="100" width="150" height="40" fill="#4472c4" stroke="#333" stroke-width="1" />
    <text x="125" y="125" font-family="Arial" font-size="16" font-weight="bold" fill="white" text-anchor="middle">Feature Category</text>
    
    <rect x="50" y="140" width="150" height="80" fill="#e6f2ff" stroke="#333" stroke-width="1" />
    <text x="125" y="180" font-family="Arial" font-size="14" font-weight="bold" text-anchor="middle">Document Processing</text>
    
    <rect x="50" y="220" width="150" height="80" fill="#e6f2ff" stroke="#333" stroke-width="1" />
    <text x="125" y="260" font-family="Arial" font-size="14" font-weight="bold" text-anchor="middle">Retrieval</text>
    
    <rect x="50" y="300" width="150" height="80" fill="#e6f2ff" stroke="#333" stroke-width="1" />
    <text x="125" y="340" font-family="Arial" font-size="14" font-weight="bold" text-anchor="middle">Generation</text>
    
    <rect x="50" y="380" width="150" height="80" fill="#e6f2ff" stroke="#333" stroke-width="1" />
    <text x="125" y="420" font-family="Arial" font-size="14" font-weight="bold" text-anchor="middle">Security n Compliance</text>
    
    <rect x="50" y="460" width="150" height="80" fill="#e6f2ff" stroke="#333" stroke-width="1" />
    <text x="125" y="500" font-family="Arial" font-size="14" font-weight="bold" text-anchor="middle">Customization</text>
    
    <!-- Solution Categories -->
    <rect x="200" y="100" width="120" height="40" fill="#4472c4" stroke="#333" stroke-width="1" />
    <text x="260" y="125" font-family="Arial" font-size="14" font-weight="bold" fill="white" text-anchor="middle">Pure SaaS</text>
    
    <rect x="320" y="100" width="120" height="40" fill="#4472c4" stroke="#333" stroke-width="1" />
    <text x="380" y="125" font-family="Arial" font-size="14" font-weight="bold" fill="white" text-anchor="middle">Enterprise</text>
    
    <rect x="440" y="100" width="120" height="40" fill="#4472c4" stroke="#333" stroke-width="1" />
    <text x="500" y="125" font-family="Arial" font-size="14" font-weight="bold" fill="white" text-anchor="middle">Component</text>
    
    <rect x="560" y="100" width="120" height="40" fill="#4472c4" stroke="#333" stroke-width="1" />
    <text x="620" y="110" font-family="Arial" font-size="14" font-weight="bold" fill="white" text-anchor="middle">Doc Processing</text>
    <text x="620" y="130" font-family="Arial" font-size="14" font-weight="bold" fill="white" text-anchor="middle">+ Vector DB</text>
    
    <rect x="680" y="100" width="120" height="40" fill="#4472c4" stroke="#333" stroke-width="1" />
    <text x="740" y="110" font-family="Arial" font-size="14" font-weight="bold" fill="white" text-anchor="middle">Embedding</text>
    <text x="740" y="130" font-family="Arial" font-size="14" font-weight="bold" fill="white" text-anchor="middle">+ LLM</text>
    
    <!-- Document Processing Capabilities -->
    <rect x="200" y="140" width="120" height="80" fill="#f5f5f5" stroke="#333" stroke-width="1" />
    <circle cx="260" cy="180" r="30" fill="#ffc000" stroke="#333" stroke-width="2" />
    <text x="260" y="185" font-family="Arial" font-size="16" font-weight="bold" text-anchor="middle">3/5</text>
    
    <rect x="320" y="140" width="120" height="80" fill="#f5f5f5" stroke="#333" stroke-width="1" />
    <circle cx="380" cy="180" r="30" fill="#70ad47" stroke="#333" stroke-width="2" />
    <text x="380" y="185" font-family="Arial" font-size="16" font-weight="bold" text-anchor="middle">5/5</text>
    
    <rect x="440" y="140" width="120" height="80" fill="#f5f5f5" stroke="#333" stroke-width="1" />
    <circle cx="500" cy="180" r="30" fill="#ffc000" stroke="#333" stroke-width="2" />
    <text x="500" y="185" font-family="Arial" font-size="16" font-weight="bold" text-anchor="middle">3/5</text>
    
    <rect x="560" y="140" width="120" height="80" fill="#f5f5f5" stroke="#333" stroke-width="1" />
    <circle cx="620" cy="180" r="30" fill="#70ad47" stroke="#333" stroke-width="2" />
    <text x="620" y="185" font-family="Arial" font-size="16" font-weight="bold" text-anchor="middle">5/5</text>
    
    <rect x="680" y="140" width="120" height="80" fill="#f5f5f5" stroke="#333" stroke-width="1" />
    <circle cx="740" cy="180" r="30" fill="#ed7d31" stroke="#333" stroke-width="2" />
    <text x="740" y="185" font-family="Arial" font-size="16" font-weight="bold" text-anchor="middle">2/5</text>
    
    <!-- Retrieval Capabilities -->
    <rect x="200" y="220" width="120" height="80" fill="#f5f5f5" stroke="#333" stroke-width="1" />
    <circle cx="260" cy="260" r="30" fill="#ffc000" stroke="#333" stroke-width="2" />
    <text x="260" y="265" font-family="Arial" font-size="16" font-weight="bold" text-anchor="middle">3/5</text>
    
    <rect x="320" y="220" width="120" height="80" fill="#f5f5f5" stroke="#333" stroke-width="1" />
    <circle cx="380" cy="260" r="30" fill="#70ad47" stroke="#333" stroke-width="2" />
    <text x="380" y="265" font-family="Arial" font-size="16" font-weight="bold" text-anchor="middle">5/5</text>
    
    <rect x="440" y="220" width="120" height="80" fill="#f5f5f5" stroke="#333" stroke-width="1" />
    <circle cx="500" cy="260" r="30" fill="#70ad47" stroke="#333" stroke-width="2" />
    <text x="500" y="265" font-family="Arial" font-size="16" font-weight="bold" text-anchor="middle">5/5</text>
    
    <rect x="560" y="220" width="120" height="80" fill="#f5f5f5" stroke="#333" stroke-width="1" />
    <circle cx="620" cy="260" r="30" fill="#70ad47" stroke="#333" stroke-width="2" />
    <text x="620" y="265" font-family="Arial" font-size="16" font-weight="bold" text-anchor="middle">4/5</text>
    
    <rect x="680" y="220" width="120" height="80" fill="#f5f5f5" stroke="#333" stroke-width="1" />
    <circle cx="740" cy="260" r="30" fill="#ed7d31" stroke="#333" stroke-width="2" />
    <text x="740" y="265" font-family="Arial" font-size="16" font-weight="bold" text-anchor="middle">2/5</text>
    
    <!-- Generation Capabilities -->
    <rect x="200" y="300" width="120" height="80" fill="#f5f5f5" stroke="#333" stroke-width="1" />
    <circle cx="260" cy="340" r="30" fill="#ffc000" stroke="#333" stroke-width="2" />
    <text x="260" y="345" font-family="Arial" font-size="16" font-weight="bold" text-anchor="middle">3/5</text>
    
    <rect x="320" y="300" width="120" height="80" fill="#f5f5f5" stroke="#333" stroke-width="1" />
    <circle cx="380" cy="340" r="30" fill="#70ad47" stroke="#333" stroke-width="2" />
    <text x="380" y="345" font-family="Arial" font-size="16" font-weight="bold" text-anchor="middle">4/5</text>
    
    <rect x="440" y="300" width="120" height="80" fill="#f5f5f5" stroke="#333" stroke-width="1" />
    <circle cx="500" cy="340" r="30" fill="#70ad47" stroke="#333" stroke-width="2" />
    <text x="500" y="345" font-family="Arial" font-size="16" font-weight="bold" text-anchor="middle">5/5</text>
    
    <rect x="560" y="300" width="120" height="80" fill="#f5f5f5" stroke="#333" stroke-width="1" />
    <circle cx="620" cy="340" r="30" fill="#ffc000" stroke="#333" stroke-width="2" />
    <text x="620" y="345" font-family="Arial" font-size="16" font-weight="bold" text-anchor="middle">3/5</text>
    
    <rect x="680" y="300" width="120" height="80" fill="#f5f5f5" stroke="#333" stroke-width="1" />
    <circle cx="740" cy="340" r="30" fill="#70ad47" stroke="#333" stroke-width="2" />
    <text x="740" y="345" font-family="Arial" font-size="16" font-weight="bold" text-anchor="middle">5/5</text>
    
    <!-- Security & Compliance -->
    <rect x="200" y="380" width="120" height="80" fill="#f5f5f5" stroke="#333" stroke-width="1" />
    <circle cx="260" cy="420" r="30" fill="#ffc000" stroke="#333" stroke-width="2" />
    <text x="260" y="425" font-family="Arial" font-size="16" font-weight="bold" text-anchor="middle">3/5</text>
    
    <rect x="320" y="380" width="120" height="80" fill="#f5f5f5" stroke="#333" stroke-width="1" />
    <circle cx="380" cy="420" r="30" fill="#70ad47" stroke="#333" stroke-width="2" />
    <text x="380" y="425" font-family="Arial" font-size="16" font-weight="bold" text-anchor="middle">5/5</text>
    
    <rect x="440" y="380" width="120" height="80" fill="#f5f5f5" stroke="#333" stroke-width="1" />
    <circle cx="500" cy="420" r="30" fill="#ed7d31" stroke="#333" stroke-width="2" />
    <text x="500" y="425" font-family="Arial" font-size="16" font-weight="bold" text-anchor="middle">2/5</text>
    
    <rect x="560" y="380" width="120" height="80" fill="#f5f5f5" stroke="#333" stroke-width="1" />
    <circle cx="620" cy="420" r="30" fill="#ffc000" stroke="#333" stroke-width="2" />
    <text x="620" y="425" font-family="Arial" font-size="16" font-weight="bold" text-anchor="middle">3/5</text>
    
    <rect x="680" y="380" width="120" height="80" fill="#f5f5f5" stroke="#333" stroke-width="1" />
    <circle cx="740" cy="420" r="30" fill="#ffc000" stroke="#333" stroke-width="2" />
    <text x="740" y="425" font-family="Arial" font-size="16" font-weight="bold" text-anchor="middle">3/5</text>
    
    <!-- Customization -->
    <rect x="200" y="460" width="120" height="80" fill="#f5f5f5" stroke="#333" stroke-width="1" />
    <circle cx="260" cy="500" r="30" fill="#ed7d31" stroke="#333" stroke-width="2" />
    <text x="260" y="505" font-family="Arial" font-size="16" font-weight="bold" text-anchor="middle">2/5</text>
    
    <rect x="320" y="460" width="120" height="80" fill="#f5f5f5" stroke="#333" stroke-width="1" />
    <circle cx="380" cy="500" r="30" fill="#ffc000" stroke="#333" stroke-width="2" />
    <text x="380" y="505" font-family="Arial" font-size="16" font-weight="bold" text-anchor="middle">3/5</text>
    
    <rect x="440" y="460" width="120" height="80" fill="#f5f5f5" stroke="#333" stroke-width="1" />
    <circle cx="500" cy="500" r="30" fill="#70ad47" stroke="#333" stroke-width="2" />
    <text x="500" y="505" font-family="Arial" font-size="16" font-weight="bold" text-anchor="middle">5/5</text>
    
    <rect x="560" y="460" width="120" height="80" fill="#f5f5f5" stroke="#333" stroke-width="1" />
    <circle cx="620" cy="500" r="30" fill="#ffc000" stroke="#333" stroke-width="2" />
    <text x="620" y="505" font-family="Arial" font-size="16" font-weight="bold" text-anchor="middle">3/5</text>
    
    <rect x="680" y="460" width="120" height="80" fill="#f5f5f5" stroke="#333" stroke-width="1" />
    <circle cx="740" cy="500" r="30" fill="#ffc000" stroke="#333" stroke-width="2" />
    <text x="740" y="505" font-family="Arial" font-size="16" font-weight="bold" text-anchor="middle">3/5</text>
    
    <!-- Legend -->
    <rect x="100" y="560" width="700" height="30" rx="5" fill="#f0f0f0" stroke="#ccc" stroke-width="1" />
    
    <circle cx="140" cy="575" r="10" fill="#ed7d31" stroke="#333" stroke-width="1" />
    <text x="160" y="580" font-family="Arial" font-size="14" text-anchor="start">Weak (1-2)</text>
    
    <circle cx="260" cy="575" r="10" fill="#ffc000" stroke="#333" stroke-width="1" />
    <text x="280" y="580" font-family="Arial" font-size="14" text-anchor="start">Moderate (3)</text>
    
    <circle cx="380" cy="575" r="10" fill="#70ad47" stroke="#333" stroke-width="1" />
    <text x="400" y="580" font-family="Arial" font-size="14" text-anchor="start">Strong (4-5)</text>
    
    <text x="620" y="580" font-family="Arial" font-size="14" font-weight="bold" text-anchor="middle">Relative Capability Rating</text>
  </svg>