<?xml version="1.0" encoding="UTF-8"?>
<svg width="900" height="600" xmlns="http://www.w3.org/2000/svg">
    <defs>
        <linearGradient id="gradDoc" x1="0%" y1="0%" x2="0%" y2="100%">
            <stop offset="0%" style="stop-color:#4e54c8;stop-opacity:1" />
            <stop offset="100%" style="stop-color:#8f94fb;stop-opacity:1" />
        </linearGradient>
        <linearGradient id="gradEmbed" x1="0%" y1="0%" x2="0%" y2="100%">
            <stop offset="0%" style="stop-color:#00b09b;stop-opacity:1" />
            <stop offset="100%" style="stop-color:#96c93d;stop-opacity:1" />
        </linearGradient>
        <linearGradient id="gradVector" x1="0%" y1="0%" x2="0%" y2="100%">
            <stop offset="0%" style="stop-color:#ff9966;stop-opacity:1" />
            <stop offset="100%" style="stop-color:#ff5e62;stop-opacity:1" />
        </linearGradient>
        <linearGradient id="gradLLM" x1="0%" y1="0%" x2="0%" y2="100%">
            <stop offset="0%" style="stop-color:#667eea;stop-opacity:1" />
            <stop offset="100%" style="stop-color:#764ba2;stop-opacity:1" />
        </linearGradient>
        <filter id="shadow" x="-20%" y="-20%" width="140%" height="140%">
            <feDropShadow dx="2" dy="2" stdDeviation="3" flood-opacity="0.3"/>
        </filter>
    </defs>

    <!-- Title -->
    <text x="450" y="30" font-family="Arial" font-size="24" font-weight="bold" text-anchor="middle" filter="url(#shadow)">RAG Components Breakdown</text>
    <text x="450" y="60" font-family="Arial" font-size="16" text-anchor="middle">Essential Building Blocks for 100K Pages Monthly Processing</text>

    <!-- Main Flow -->
    <rect x="50" y="100" width="800" height="80" rx="10" ry="10" fill="#f8f9fa" stroke="#ddd" stroke-width="2"/>
    
    <!-- Component Boxes in Flow -->
    <rect x="80" y="110" width="160" height="60" rx="10" ry="10" fill="url(#gradDoc)" filter="url(#shadow)"/>
    <text x="160" y="145" font-family="Arial" font-size="14" font-weight="bold" text-anchor="middle" fill="white">Document Processing</text>
    
    <rect x="270" y="110" width="160" height="60" rx="10" ry="10" fill="url(#gradEmbed)" filter="url(#shadow)"/>
    <text x="350" y="145" font-family="Arial" font-size="14" font-weight="bold" text-anchor="middle" fill="white">Embedding Models</text>
    
    <rect x="460" y="110" width="160" height="60" rx="10" ry="10" fill="url(#gradVector)" filter="url(#shadow)"/>
    <text x="540" y="145" font-family="Arial" font-size="14" font-weight="bold" text-anchor="middle" fill="white">Vector Databases</text>
    
    <rect x="650" y="110" width="160" height="60" rx="10" ry="10" fill="url(#gradLLM)" filter="url(#shadow)"/>
    <text x="730" y="145" font-family="Arial" font-size="14" font-weight="bold" text-anchor="middle" fill="white">LLM Generation</text>
    
    <!-- Flow Arrows -->
    <line x1="240" y1="140" x2="270" y2="140" stroke="#333" stroke-width="2"/>
    <polygon points="270,140 260,135 260,145" fill="#333"/>
    
    <line x1="430" y1="140" x2="460" y2="140" stroke="#333" stroke-width="2"/>
    <polygon points="460,140 450,135 450,145" fill="#333"/>
    
    <line x1="620" y1="140" x2="650" y2="140" stroke="#333" stroke-width="2"/>
    <polygon points="650,140 640,135 640,145" fill="#333"/>

    <!-- Document Processing Section -->
    <rect x="50" y="200" width="190" height="360" rx="10" ry="10" fill="#f8f9fa" stroke="#ddd" stroke-width="2"/>
    <rect x="50" y="200" width="190" height="40" rx="10" ry="10" fill="url(#gradDoc)"/>
    <text x="145" y="225" font-family="Arial" font-size="16" font-weight="bold" text-anchor="middle" fill="white">Document Processing</text>
    
    <!-- Document Processing Providers -->
    <rect x="65" y="250" width="160" height="290" rx="10" ry="10" fill="white" stroke="#ddd" stroke-width="1"/>
    <text x="145" y="270" font-family="Arial" font-size="14" font-weight="bold" text-anchor="middle" fill="#333">Top Providers</text>
    
    <rect x="75" y="285" width="140" height="40" rx="5" ry="5" fill="#f8f9fa" stroke="#ddd" stroke-width="1"/>
    <text x="145" y="305" font-family="Arial" font-size="12" font-weight="bold" text-anchor="middle" fill="#333">AWS Textract</text>
    <text x="145" y="320" font-family="Arial" font-size="10" text-anchor="middle" fill="#666">$1,500-$2,000/100K pages</text>
    
    <rect x="75" y="335" width="140" height="40" rx="5" ry="5" fill="#f8f9fa" stroke="#ddd" stroke-width="1"/>
    <text x="145" y="355" font-family="Arial" font-size="12" font-weight="bold" text-anchor="middle" fill="#333">Azure Form Recognizer</text>
    <text x="145" y="370" font-family="Arial" font-size="10" text-anchor="middle" fill="#666">$1,000-$1,500/100K pages</text>
    
    <rect x="75" y="385" width="140" height="40" rx="5" ry="5" fill="#f8f9fa" stroke="#ddd" stroke-width="1"/>
    <text x="145" y="405" font-family="Arial" font-size="12" font-weight="bold" text-anchor="middle" fill="#333">Google Document AI</text>
    <text x="145" y="420" font-family="Arial" font-size="10" text-anchor="middle" fill="#666">$1,000-$1,500/100K pages</text>
    
    <rect x="75" y="435" width="140" height="40" rx="5" ry="5" fill="#f8f9fa" stroke="#ddd" stroke-width="1"/>
    <text x="145" y="455" font-family="Arial" font-size="12" font-weight="bold" text-anchor="middle" fill="#333">Unstructured.io</text>
    <text x="145" y="470" font-family="Arial" font-size="10" text-anchor="middle" fill="#666">$0 (self-hosted)</text>
    
    <rect x="75" y="485" width="140" height="40" rx="5" ry="5" fill="#f8f9fa" stroke="#ddd" stroke-width="1"/>
    <text x="145" y="505" font-family="Arial" font-size="12" font-weight="bold" text-anchor="middle" fill="#333">Reducto</text>
    <text x="145" y="520" font-family="Arial" font-size="10" text-anchor="middle" fill="#666">Custom pricing</text>

    <!-- Embedding Models Section -->
    <rect x="250" y="200" width="190" height="360" rx="10" ry="10" fill="#f8f9fa" stroke="#ddd" stroke-width="2"/>
    <rect x="250" y="200" width="190" height="40" rx="10" ry="10" fill="url(#gradEmbed)"/>
    <text x="345" y="225" font-family="Arial" font-size="16" font-weight="bold" text-anchor="middle" fill="white">Embedding Models</text>
    
    <!-- Embedding Providers -->
    <rect x="265" y="250" width="160" height="290" rx="10" ry="10" fill="white" stroke="#ddd" stroke-width="1"/>
    <text x="345" y="270" font-family="Arial" font-size="14" font-weight="bold" text-anchor="middle" fill="#333">Top Providers</text>
    
    <rect x="275" y="285" width="140" height="40" rx="5" ry="5" fill="#f8f9fa" stroke="#ddd" stroke-width="1"/>
    <text x="345" y="305" font-family="Arial" font-size="12" font-weight="bold" text-anchor="middle" fill="#333">OpenAI</text>
    <text x="345" y="320" font-family="Arial" font-size="10" text-anchor="middle" fill="#666">$7.50-$40/75M tokens</text>
    
    <rect x="275" y="335" width="140" height="40" rx="5" ry="5" fill="#f8f9fa" stroke="#ddd" stroke-width="1"/>
    <text x="345" y="355" font-family="Arial" font-size="12" font-weight="bold" text-anchor="middle" fill="#333">Cohere</text>
    <text x="345" y="370" font-family="Arial" font-size="10" text-anchor="middle" fill="#666">$75-$150/75M tokens</text>
    
    <rect x="275" y="385" width="140" height="40" rx="5" ry="5" fill="#f8f9fa" stroke="#ddd" stroke-width="1"/>
    <text x="345" y="405" font-family="Arial" font-size="12" font-weight="bold" text-anchor="middle" fill="#333">Anthropic</text>
    <text x="345" y="420" font-family="Arial" font-size="10" text-anchor="middle" fill="#666">Custom pricing</text>
    
    <rect x="275" y="435" width="140" height="40" rx="5" ry="5" fill="#f8f9fa" stroke="#ddd" stroke-width="1"/>
    <text x="345" y="455" font-family="Arial" font-size="12" font-weight="bold" text-anchor="middle" fill="#333">Google</text>
    <text x="345" y="470" font-family="Arial" font-size="10" text-anchor="middle" fill="#666">$40-$120/75M tokens</text>
    
    <rect x="275" y="485" width="140" height="40" rx="5" ry="5" fill="#f8f9fa" stroke="#ddd" stroke-width="1"/>
    <text x="345" y="505" font-family="Arial" font-size="12" font-weight="bold" text-anchor="middle" fill="#333">Hugging Face</text>
    <text x="345" y="520" font-family="Arial" font-size="10" text-anchor="middle" fill="#666">Computing costs only</text>

    <!-- Vector Databases Section -->
    <rect x="450" y="200" width="190" height="360" rx="10" ry="10" fill="#f8f9fa" stroke="#ddd" stroke-width="2"/>
    <rect x="450" y="200" width="190" height="40" rx="10" ry="10" fill="url(#gradVector)"/>
    <text x="545" y="225" font-family="Arial" font-size="16" font-weight="bold" text-anchor="middle" fill="white">Vector Databases</text>
    
    <!-- Vector Database Providers -->
    <rect x="465" y="250" width="160" height="290" rx="10" ry="10" fill="white" stroke="#ddd" stroke-width="1"/>
    <text x="545" y="270" font-family="Arial" font-size="14" font-weight="bold" text-anchor="middle" fill="#333">Top Providers</text>
    
    <rect x="475" y="285" width="140" height="40" rx="5" ry="5" fill="#f8f9fa" stroke="#ddd" stroke-width="1"/>
    <text x="545" y="305" font-family="Arial" font-size="12" font-weight="bold" text-anchor="middle" fill="#333">Pinecone</text>
    <text x="545" y="320" font-family="Arial" font-size="10" text-anchor="middle" fill="#666">$70-$500+/month</text>
    
    <rect x="475" y="335" width="140" height="40" rx="5" ry="5" fill="#f8f9fa" stroke="#ddd" stroke-width="1"/>
    <text x="545" y="355" font-family="Arial" font-size="12" font-weight="bold" text-anchor="middle" fill="#333">Weaviate</text>
    <text x="545" y="370" font-family="Arial" font-size="10" text-anchor="middle" fill="#666">$75-$600+/month</text>
    
    <rect x="475" y="385" width="140" height="40" rx="5" ry="5" fill="#f8f9fa" stroke="#ddd" stroke-width="1"/>
    <text x="545" y="405" font-family="Arial" font-size="12" font-weight="bold" text-anchor="middle" fill="#333">Qdrant</text>
    <text x="545" y="420" font-family="Arial" font-size="10" text-anchor="middle" fill="#666">$50-$400+/month</text>
    
    <rect x="475" y="435" width="140" height="40" rx="5" ry="5" fill="#f8f9fa" stroke="#ddd" stroke-width="1"/>
    <text x="545" y="455" font-family="Arial" font-size="12" font-weight="bold" text-anchor="middle" fill="#333">Chroma</text>
    <text x="545" y="470" font-family="Arial" font-size="10" text-anchor="middle" fill="#666">Self-hosted or managed</text>
    
    <rect x="475" y="485" width="140" height="40" rx="5" ry="5" fill="#f8f9fa" stroke="#ddd" stroke-width="1"/>
    <text x="545" y="505" font-family="Arial" font-size="12" font-weight="bold" text-anchor="middle" fill="#333">Milvus</text>
    <text x="545" y="520" font-family="Arial" font-size="10" text-anchor="middle" fill="#666">Self-hosted or managed</text>

    <!-- LLM Generation Section -->
    <rect x="650" y="200" width="190" height="360" rx="10" ry="10" fill="#f8f9fa" stroke="#ddd" stroke-width="2"/>
    <rect x="650" y="200" width="190" height="40" rx="10" ry="10" fill="url(#gradLLM)"/>
    <text x="745" y="225" font-family="Arial" font-size="16" font-weight="bold" text-anchor="middle" fill="white">LLM Generation</text>
    
    <!-- LLM Generation Providers -->
    <rect x="665" y="250" width="160" height="290" rx="10" ry="10" fill="white" stroke="#ddd" stroke-width="1"/>
    <text x="745" y="270" font-family="Arial" font-size="14" font-weight="bold" text-anchor="middle" fill="#333">Top Providers</text>
    
    <rect x="675" y="285" width="140" height="40" rx="5" ry="5" fill="#f8f9fa" stroke="#ddd" stroke-width="1"/>
    <text x="745" y="305" font-family="Arial" font-size="12" font-weight="bold" text-anchor="middle" fill="#333">OpenAI</text>
    <text x="745" y="320" font-family="Arial" font-size="10" text-anchor="middle" fill="#666">$0.5-$30 per million tokens</text>
    
    <rect x="675" y="335" width="140" height="40" rx="5" ry="5" fill="#f8f9fa" stroke="#ddd" stroke-width="1"/>
    <text x="745" y="355" font-family="Arial" font-size="12" font-weight="bold" text-anchor="middle" fill="#333">Anthropic</text>
    <text x="745" y="370" font-family="Arial" font-size="10" text-anchor="middle" fill="#666">$0.8-$24 per million tokens</text>
    
    <rect x="675" y="385" width="140" height="40" rx="5" ry="5" fill="#f8f9fa" stroke="#ddd" stroke-width="1"/>
    <text x="745" y="405" font-family="Arial" font-size="12" font-weight="bold" text-anchor="middle" fill="#333">Google</text>
    <text x="745" y="420" font-family="Arial" font-size="10" text-anchor="middle" fill="#666">$0.5-$20 per million tokens</text>
    
    <rect x="675" y="435" width="140" height="40" rx="5" ry="5" fill="#f8f9fa" stroke="#ddd" stroke-width="1"/>
    <text x="745" y="455" font-family="Arial" font-size="12" font-weight="bold" text-anchor="middle" fill="#333">Meta</text>
    <text x="745" y="470" font-family="Arial" font-size="10" text-anchor="middle" fill="#666">Computing costs only</text>
    
    <rect x="675" y="485" width="140" height="40" rx="5" ry="5" fill="#f8f9fa" stroke="#ddd" stroke-width="1"/>
    <text x="745" y="505" font-family="Arial" font-size="12" font-weight="bold" text-anchor="middle" fill="#333">Mistral AI</text>
    <text x="745" y="520" font-family="Arial" font-size="10" text-anchor="middle" fill="#666">Computing costs or API fees</text>
</svg>